Simulation
nRows=44
nColumns=15
endheader
time  TH_x TH_y TH_z SC_y  SC_z  SC_x  AC_y  AC_z  AC_x  GH_y  GH_z  GH_yy  EL_x  PS_y
1.25  0.000000  0.000000  0.000000  -34.652901809841175  6.158918724537741  -11.145039157382246  66.98202071613477  42.55730735216194  10.365462955944235  -8.524652225334746  62.85818414162608  -13.065625605823826  23.59843578187142  120.000000
1.2750000000000001  0.000000  0.000000  0.000000  -34.897324197155015  6.275816296312344  -10.672772944970765  67.21074621237109  42.47534799923317  10.403869493543406  -8.64072225124186  63.16250475292207  -13.706087185362707  23.534978103174904  120.000000
1.3  0.000000  0.000000  0.000000  -35.13794615915926  6.387066341011178  -10.171718342092799  67.42951044111886  42.35076359693948  10.418344640079052  -8.728418008661128  63.404362582591446  -14.299086661779137  23.49456406774737  120.000000
1.3250000000000002  0.000000  0.000000  0.000000  -35.37018598288443  6.496732650589865  -9.654655436861779  67.62750907588625  42.18960313969659  10.418345000765601  -8.785845821907223  63.58503997027065  -14.82651144522432  23.470327550558054  120.000000
1.35  0.000000  0.000000  0.000000  -35.58824277208693  6.605936914755749  -9.134528252183635  67.79756447341998  41.99706624724215  10.408884146729294  -8.813249222058637  63.70769228655065  -15.274446453270926  23.45568906633642  120.000000
1.375  0.000000  0.000000  0.000000  -35.78479588646723  6.707347754433119  -8.622400024908798  67.93834293496576  41.77664642471458  10.382921563057879  -8.811144989485186  63.77957358231251  -15.634304136116732  23.445247475606642  120.000000
1.4000000000000001  0.000000  0.000000  0.000000  -35.952413712737915  6.791476617160038  -8.129126885858163  68.05204530502735  41.53085177498205  10.329779826267574  -8.78093381986961  63.808904316161794  -15.902795400869724  23.43456381058594  120.000000
1.425  0.000000  0.000000  0.000000  -36.08489597301657  6.852952670486558  -7.666262543003079  68.14152982876553  41.262098215696874  10.24355104578079  -8.725377500169598  63.80153218456913  -16.08132742580753  23.419668178027617  120.000000
1.4500000000000002  0.000000  0.000000  0.000000  -36.17801773339449  6.889347486187228  -7.244617715859518  68.20965170786508  40.97349818265051  10.122019154077817  -8.647192563456887  63.760219815547785  -16.17553453365966  23.39775394455439  120.000000
1.475  0.000000  0.000000  0.000000  -36.23010599228876  6.899592068111586  -6.8730538499593115  68.25886045610508  40.66941118666094  9.965233844805981  -8.548035247548828  63.684017115575244  -16.194885166585138  23.368263218656768  120.000000
1.5  0.000000  0.000000  0.000000  -36.24204257437317  6.883403123831313  -6.557907750364811  68.29106835624366  40.355350517264554  9.774924163675706  -8.428224456884875  63.56812351572601  -16.15197488546961  23.332988796529836  120.000000
1.5250000000000001  0.000000  0.000000  0.000000  -36.21683267356579  6.840845748024425  -6.302920085993515  68.30788628216509  40.03756950874738  9.553870717657336  -8.28679785117666  63.40461075334142  -16.061112150408764  23.295715942395848  120.000000
1.55  0.000000  0.000000  0.000000  -36.158917009607926  6.772410287355098  -6.109688999202956  68.31093841078683  39.72231166065906  9.305636326835252  -8.12178735272843  63.18381963003175  -15.936355633219536  23.261503925433143  120.000000
1.5750000000000002  0.000000  0.000000  0.000000  -36.07342986918884  6.679094685228244  -5.978217323657653  68.30217795220382  39.415143715637505  9.034374448900657  -7.9305819498797705  62.8958470315239  -15.789432542937586  23.235813986859405  120.000000
1.6  0.000000  0.000000  0.000000  -35.965634009392026  6.562556610182838  -5.907532982772634  68.28404862755107  39.120461275394874  8.744721247679056  -7.710281054663487  62.53190660574002  -15.628018430638829  23.22372485515474  120.000000
1.625  0.000000  0.000000  0.000000  -35.84053246920741  6.425110201362278  -5.8961749316724  68.25950119191138  38.841258151836854  8.44166899266172  -7.458069967604555  62.08530550924101  -15.45486105387515  23.22930397976832  120.000000
1.6500000000000001  0.000000  0.000000  0.000000  -35.70255132654813  6.269408464354258  -5.942567559687604  68.23189472515452  38.579221059827034  8.13024458834897  -7.171674589497697  61.55192539790473  -15.268320094556538  23.2552593484738  120.000000
1.675  0.000000  0.000000  0.000000  -35.55538770455887  6.098017087790712  -6.045318503509856  68.20483067952435  38.334917119734065  7.815102257419587  -6.849868972403735  60.930364042154785  -15.063967602258813  23.302676281647106  120.000000
1.7000000000000002  0.000000  0.000000  0.000000  -35.40190375050462  5.912918997601209  -6.2034971900555025  68.18184054710576  38.10795010971474  7.500007202304434  -6.492932811129256  60.221967388461856  -14.836620512409702  23.37078617293153  120.000000
1.725  0.000000  0.000000  0.000000  -35.24404824053239  5.715147831732658  -6.416848393290022  68.16611029949655  37.8969671870183  7.187467740294017  -6.102911883885865  59.43090547299273  -14.58225798531336  23.456719215756547  120.000000
1.75  0.000000  0.000000  0.000000  -35.082752960383324  5.504612061314808  -6.685686021097083  68.16039619002164  37.69967948227562  6.878689826600257  -5.683343011483375  58.564276464502846  -14.299086033806937  23.555490616853177  120.000000
1.7750000000000001  0.000000  0.000000  0.000000  -34.917681647117924  5.280160905252047  -7.010620440311764  68.16682197058988  37.51327771776125  6.573772931241683  -5.238639456237533  57.631874422624456  -13.98736726514463  23.66065875373841  120.000000
1.8  0.000000  0.000000  0.000000  -34.7474083939207  5.040068427176949  -7.392345982291223  68.18666839568597  37.33481231293732  6.272476263811141  -4.773840547231235  56.64544082819676  -13.648162965121788  23.76481064209525  120.000000
1.8250000000000002  0.000000  0.000000  0.000000  -34.56991791592068  4.782632669335471  -7.8315098686265685  68.21945735228465  37.161299790887725  5.974977996627994  -4.2940769524402  55.617626282744794  -13.281822688348573  23.860034354007833  120.000000
1.85  0.000000  0.000000  0.000000  -34.38297711062874  4.506665063079949  -8.328360518255593  68.26179456786419  36.989926190104654  5.682253039379304  -3.8038182414795827  54.560873146055556  -12.886160624015458  23.93895034553324  120.000000
1.875  0.000000  0.000000  0.000000  -34.184443862272914  4.212015479816211  -8.882416890285846  68.30682662061663  36.81831502375336  5.3964810598842226  -3.3061011190242278  53.48660114996781  -12.455235809981946  23.995448036158262  120.000000
1.9000000000000001  0.000000  0.000000  0.000000  -33.97246677250298  3.8997929698621623  -9.492204270225843  68.34452443799299  36.64483605959476  5.121182967802719  -2.802117817623619  52.40458272949921  -11.979596882560058  24.025178931008906  120.000000
1.925  0.000000  0.000000  0.000000  -33.745633432527946  3.572425276924601  -10.155195048031764  68.36287111575126  36.468615976868826  4.8610485180374825  -2.2912968061164674  51.32276313294043  -11.447996526845746  24.025833814850905  120.000000
1.9500000000000002  0.000000  0.000000  0.000000  -33.503096530451245  3.2334793276435474  -10.86776664559408  68.34974896817225  36.28942594324111  4.621621866646031  -1.771896271596327  50.24701087141674  -10.850350318435591  23.997158918108855  120.000000
1.975  0.000000  0.000000  0.000000  -33.24492925264065  2.8869947037528836  -11.625238955347047  68.29509186954137  36.10752838623681  4.408696130818509  -1.2421147596569135  49.18127234429069  -10.181182642908466  23.94090714932073  120.000000
2.0  0.000000  0.000000  0.000000  -32.97306844570067  2.5373658078241936  -12.421873191499445  68.19246249659346  35.92376516235642  4.227856247252475  -0.7011883274647431  48.12774791762831  -9.442290984786018  23.860954557106478  120.000000
2.025  0.000000  0.000000  0.000000  -32.691656480083886  2.1890288518828194  -13.25049820888592  68.04008380708889  35.73942959533187  4.083374792784751  -0.15020374692057467  47.087228026768656  -8.643656811588293  23.763096713781323  120.000000
2.0500000000000003  0.000000  0.000000  0.000000  -32.40620177166937  1.8456929046423523  -14.102442623782997  67.84059847721602  35.5557270321943  3.97748442016376  0.4079588649566119  46.05975325754661  -7.801838712093974  23.654342626187287  120.000000
2.075  0.000000  0.000000  0.000000  -32.122431755859516  1.51034007403736  -14.968261469605325  67.59968346846523  35.373185909774676  3.91048613163033  0.9696282492761703  45.04550348337533  -6.936522512075236  23.54224813606958  120.000000
2.1  0.000000  0.000000  0.000000  -31.84536063119513  1.1854320196193462  -15.838547106736822  67.32430526710876  35.19132622582211  3.8812317366405966  1.5312579713558432  44.04578619488337  -6.066180743340672  23.434304024661493  120.000000
2.125  0.000000  0.000000  0.000000  -31.57834394623722  0.8730425200748834  -16.70463537449559  67.020790524442  35.008685982797886  3.887548124657719  2.0902533955240514  43.06382776551618  -5.20454227073277  23.33719554095116  120.000000
2.15  0.000000  0.000000  0.000000  -31.3224347022856  0.5750309550676725  -17.55898480529236  66.69338793699234  34.82310779140688  3.9267250536226754  2.645123032258179  42.10499727889177  -4.358404013763635  23.256289018303423  120.000000
2.1750000000000003  0.000000  0.000000  0.000000  -31.076337731356293  0.29310779161396827  -18.39520114333368  66.34376582845472  34.632163933602676  3.9957336521143416  3.1953568271860324  41.1765641041416  -3.5281846907783514  23.195431078805615  120.000000
2.2  0.000000  0.000000  0.000000  -30.836969302680988  0.028971564536346053  -19.20752439987901  65.97159360249651  34.43372880416258  4.091302723332458  3.740782173269205  40.286719573362205  -2.710104487350074  23.1569932740951  120.000000
2.225  0.000000  0.000000  0.000000  -30.600225284890026  -0.21561293883037724  -19.989999980711456  65.57568949341957  34.226277669151386  4.209655233889172  4.28114998502903  39.44351924232854  -1.8996354707959833  23.141950192910212  120.000000
2.25  0.000000  0.000000  0.000000  -30.362036192596296  -0.438795903700132  -20.735198822825385  65.15567615646466  34.0093754267066  4.3460385505050905  4.81586106633069  38.65312053554796  -1.094205659194487  23.149773523004292  120.000000
2.275  0.000000  0.000000  0.000000  -30.119112668113694  -0.6384596133864505  -21.433109839626546  64.71333016901929  33.78371834002068  4.493968278965861  5.344399733563938  37.918020576379845  -0.2953134145937361  23.178927904407537  120.000000
2.3000000000000003  0.000000  0.000000  0.000000  -29.86946157513415  -0.8123817537805574  -22.069715318649674  64.25417565262259  33.55110605559947  4.643993828935858  5.867335557103378  37.234083090307934  0.49180876006412166  23.227362603143455  120.000000
2.325  0.000000  0.000000  0.000000  -29.61161927982688  -0.9589389229752282  -22.626940915773  63.78755860778591  33.31312301087669  4.782921390836142  6.387983242672676  36.587981408689046  1.259913953005193  23.294150173585418  120.000000
